<svg xmlns="http://www.w3.org/2000/svg" preserveAspectRatio="xMidYMid" viewBox="0 0 256 301">
  <path d="M24 100.4c-9.9 0-17.7 7.8-17.7 17.7v74c0 10 7.8 17.8 17.7 17.8 10 0 17.8-7.9 17.8-17.8v-74c0-9.9-7.9-17.7-17.8-17.7zm207.3 0c-10 0-17.8 7.8-17.8 17.7v74c0 10 7.9 17.8 17.8 17.8 9.8 0 17.7-7.9 17.7-17.8v-74c0-9.9-7.9-17.7-17.8-17.7zM98 184.8c-9.9 0-17.7 7.9-17.7 17.8v74c0 9.9 7.8 17.8 17.7 17.8 10 0 17.8-8 17.8-17.8v-74c0-10-7.9-17.8-17.8-17.8zm59.2 0c-9.9 0-17.7 7.9-17.7 17.8v74c0 9.9 7.8 17.8 17.7 17.8 10 0 17.8-8 17.8-17.8v-74c0-10-7.9-17.8-17.8-17.8z"/>
  <path d="M78.4 7.1a2.5 2.5 0 0 0-1.2.3 2.5 2.5 0 0 0-1 3.5l12.6 22.6a72.4 72.4 0 0 0-40.4 63.7h158.5a72.4 72.4 0 0 0-40.4-63.7L179 10.9c.7-1.3.3-2.8-1-3.5a2.5 2.5 0 0 0-1.2-.3c-.9 0-1.7.5-2.2 1.3l-12.7 22.9a84.5 84.5 0 0 0-68.5 0L80.7 8.4a2.5 2.5 0 0 0-2.3-1.3zm-30 96.3v114.9a19.1 19.1 0 0 0 19.2 19.1h120.1a19.1 19.1 0 0 0 19.2-19.1V103.4H48.4z"/>
</svg>
