<svg xmlns="http://www.w3.org/2000/svg" preserveAspectRatio="xMidYMid" viewBox="0 0 256 301">
  <path d="M24.026 100.362c-9.894 0-17.767 7.873-17.767 17.767v74.009c0 9.894 7.873 17.767 17.767 17.767 9.894 0 17.768-7.873 17.768-17.767v-74.009c0-9.894-7.874-17.767-17.768-17.767zm207.224 0c-9.895 0-17.768 7.873-17.768 17.767v74.009c0 9.894 7.873 17.767 17.768 17.767 9.894 0 17.767-7.873 17.767-17.767v-74.009c0-9.894-7.873-17.767-17.767-17.767zM98.034 184.818c-9.894 0-17.768 7.873-17.768 17.768v74.008c0 9.894 7.874 17.767 17.768 17.767 9.894 0 17.767-7.873 17.767-17.767v-74.008c0-9.895-7.873-17.768-17.767-17.768zm59.207 0c-9.895 0-17.768 7.873-17.768 17.768v74.008c0 9.894 7.873 17.767 17.768 17.767 9.894 0 17.767-7.873 17.767-17.767v-74.008c0-9.895-7.873-17.768-17.767-17.768z"/>
  <path d="M78.443 7.117a2.47 2.47 0 00-1.197.326c-1.267.702-1.683 2.158-.98 3.428l12.517 22.611c-24.08 12.53-40.346 36.341-40.378 63.669H206.87c-.033-27.328-16.298-51.14-40.378-63.669l12.516-22.61c.704-1.27.287-2.727-.98-3.429a2.467 2.467 0 00-1.197-.326c-.9-.01-1.751.44-2.231 1.306l-12.68 22.855c-10.372-4.6-22.006-7.183-34.283-7.183-12.277 0-23.91 2.582-34.283 7.183L80.674 8.423a2.486 2.486 0 00-2.23-1.306zm-30.038 96.292v114.85a19.113 19.113 0 0019.155 19.154h120.155a19.113 19.113 0 0019.155-19.155V103.41H48.405z"/>
</svg>
