<?xml version="1.0" encoding="utf-8"?>
<!-- Generator: Adobe Illustrator 24.3.0, SVG Export Plug-In . SVG Version: 6.00 Build 0)  -->
<svg version="1.1" id="Laag_1" xmlns="http://www.w3.org/2000/svg" xmlns:xlink="http://www.w3.org/1999/xlink" x="0px" y="0px"
	 viewBox="0 0 100 100" style="enable-background:new 0 0 100 100;" xml:space="preserve">
<path d="M50,1.4h41.4c3.7,0,6.7,2.6,7.1,5.9v1v83.4c0,3.7-3,6.7-6.5,6.9h-0.8H8.6c-3.5,0-6.1-1.8-6.9-4.9c-0.2-0.6-0.2-1.4-0.2-2
	v-83c0-3.9,3-6.9,6.9-7.1h10.1C28.9,1.4,39.6,1.4,50,1.4z M53.4,43.8v-4.9c0-0.8-0.2-1-1.2-1H40.3c-1.2,0-1.2,0-1.2,1.2v44.4
	c0,1,0.2,1.2,1.2,1.2h12.2c1.2,0,1.2,0,1.2-1.2V61.1c0-1.6,0.2-3.2,0.4-4.5c0.6-3.2,2-5.7,5.3-6.5c1-0.2,2.2-0.4,3.2-0.2
	c3.5,0,5.7,1.6,6.3,5.1c0.4,1.8,0.6,3.7,0.6,5.7v22.9c0,1,0.2,1.2,1.2,1.2h12.2c0.8,0,1.2-0.2,1.2-1.2V57c0-3-0.4-5.9-1.2-8.9
	c-1.2-5.1-4.1-8.9-9.5-10.4c-1.8-0.6-3.7-0.6-5.7-0.8c-3.2-0.4-6.1,0.2-9.1,1.8C56.9,39.6,54.9,41.6,53.4,43.8z M15.7,61.1v22.3
	c0,0.8,0.2,1.2,1,1.2h12.8c0.8,0,1-0.2,1-1V39.1c0-0.8-0.2-1-1-1H16.9c-1,0-1.2,0.2-1.2,1.2V61.1z M23,31.6c4.7,0,8.5-3.7,8.5-8.3
	c0-4.7-3.7-8.5-8.5-8.5s-8.5,3.7-8.5,8.5C14.7,27.8,18.5,31.6,23,31.6z"/>
</svg>
