<svg xmlns="http://www.w3.org/2000/svg" viewBox="0 0 100 100">
  <path d="M50 1.4h41.4a7 7 0 017.1 5.9v84.4a7 7 0 01-6.5 6.9H8.6c-3.5 0-6.1-1.8-6.9-4.9-.2-.6-.2-1.4-.2-2v-83a7 7 0 016.9-7.1h10.1c10.4-.2 21.1-.2 31.5-.2zm3.4 42.4v-4.9c0-.8-.2-1-1.2-1H40.3c-1.2 0-1.2 0-1.2 1.2v44.4c0 1 .2 1.2 1.2 1.2h12.2c1.2 0 1.2 0 1.2-1.2V61.1c0-1.6.2-3.2.4-4.5.6-3.2 2-5.7 5.3-6.5 1-.2 2.2-.4 3.2-.2 3.5 0 5.7 1.6 6.3 5.1.4 1.8.6 3.7.6 5.7v22.9c0 1 .2 1.2 1.2 1.2h12.2c.8 0 1.2-.2 1.2-1.2V57c0-3-.4-5.9-1.2-8.9-1.2-5.1-4.1-8.9-9.5-10.4-1.8-.6-3.7-.6-5.7-.8-3.2-.4-6.1.2-9.1 1.8-1.7.9-3.7 2.9-5.2 5.1zM15.7 61.1v22.3c0 .8.2 1.2 1 1.2h12.8c.8 0 1-.2 1-1V39.1c0-.8-.2-1-1-1H16.9c-1 0-1.2.2-1.2 1.2v21.8zM23 31.6a8.4 8.4 0 100-16.8 8.4 8.4 0 00-8.5 8.5c.2 4.5 4 8.3 8.5 8.3z"/>
</svg>
