<svg xmlns="http://www.w3.org/2000/svg" viewBox="0 0 100 100">
  <title>Icon Open-graph Logo</title>
  <path d="M92.4 77.7a2.7 2.7 0 01-2.7-2.7c0-1.5 1.2-2.7 2.7-2.7 1.5 0 2.7 1.2 2.7 2.7 0 1.5-1.2 2.7-2.7 2.7zm-36.3 3a61.3 61.3 0 008.5-17.4c4.5.9 8.7 2.4 13.3 4.7L56.1 80.7zm-22-41.5c-.7 2.9-1.2 6.1-1.3 9.4H20.2V34.1a57 57 0 0013.9 5.1zM7.6 27.5a2.7 2.7 0 01-2.7-2.7c0-1.5 1.2-2.7 2.7-2.7 1.5 0 2.7 1.2 2.7 2.7 0 1.5-1.2 2.7-2.7 2.7zm35.6-7.8a58.4 58.4 0 00-8.4 16.8c-4.2-.9-8.2-2.4-12.5-4.5l20.9-12.3zm7.9 39.5v-3.3a6.2 6.2 0 004.7-4.5H64c-.1 3-.5 6-1.2 8.8a70 70 0 00-11.7-1zm0 2.9c4 0 7.6.3 10.9.8-2.8 9.3-8 16.6-10.9 20.2v-21zm-16.2 1.6a54 54 0 008.4 16.7L21.9 68.1c2.6-1.2 7.1-3.1 13-4.4zm9.2-12.3a6 6 0 004.6 4.5v3.4c-4.4.1-8.4.5-12 1.2-.7-2.8-1.1-5.9-1.2-9.1h8.6zm4.5-10.8V44a6 6 0 00-4.6 4.5h-8.7c.1-3.1.6-6.1 1.2-8.9 3.8.7 7.7 1 12.1 1zm0-21.9v19c-4.2-.1-7.8-.3-11.3-.9a55.9 55.9 0 0111.3-20v1.9zm15.9 17.6a60.5 60.5 0 00-8.4-17.1L78 32a63.1 63.1 0 01-13.5 4.3zM51.1 18.7v-1.9c2.9 3.5 8 10.7 10.9 20a71 71 0 01-10.9 1V18.7zM50 53.1a3.2 3.2 0 01-3.2-3.2c0-1.8 1.4-3.2 3.2-3.2 1.8 0 3.2 1.4 3.2 3.2 0 1.8-1.5 3.2-3.2 3.2zm-1.3 30.1c-3-3.4-8.4-10.5-11.3-20 3.4-.6 7.2-1.1 11.3-1.1v21.1zm7.1-34.7c-.6-2.3-2.4-4-4.7-4.5v-3.3c4.2-.1 8.1-.5 11.6-1.1.7 2.8 1.1 5.8 1.3 8.9h-8.2zm23.6 0h-13c-.1-3.3-.6-6.4-1.3-9.4a58.2 58.2 0 0014.3-4.7v14.1zm-59.2 2.9h12.6a42 42 0 001.3 9.6 68 68 0 00-13.9 4.7V51.4zm44.9 9.2c.7-2.9 1.1-6 1.2-9.2h13v14.4a45.8 45.8 0 00-14.2-5.2zm27.3 8.2c-1.7 0-3.3.7-4.4 1.7l-5-2.9V30.9L49.9 11.6 18.7 30l-5.2-3.1c.2-.7.4-1.4.4-2.1 0-3.4-2.8-6.2-6.2-6.2a6.2 6.2 0 00-6.2 6.2c0 3.4 2.8 6.2 6.2 6.2 1.7 0 3.1-.7 4.2-1.7 1.7 1 3.5 2 4.7 2.9v37.1l33.3 19.2L81.5 70c1.7 1 3.4 1.9 5 3-.2.7-.4 1.4-.4 2.1 0 3.4 2.8 6.2 6.2 6.2 3.4 0 6.2-2.8 6.2-6.2a6.1 6.1 0 00-6.1-6.3z"/>
</svg>
