<?xml version="1.0" encoding="utf-8"?>
<!-- Generator: Adobe Illustrator 24.3.0, SVG Export Plug-In . SVG Version: 6.00 Build 0)  -->
<svg version="1.1" id="Laag_1" xmlns="http://www.w3.org/2000/svg" xmlns:xlink="http://www.w3.org/1999/xlink" x="0px" y="0px"
	 viewBox="0 0 100 100" style="enable-background:new 0 0 100 100;" xml:space="preserve">
<path d="M9.8,80.6h4h0.5v17.1h71.6V80.6h0.5h3.9c4.4,0,8-3.6,8.1-8V57.4c0-4.4-3.6-8.1-8.1-8.1h-4c-0.2,0-0.3,0-0.5,0V32.2h-33V19.3
	h1c4.7,0,8.5-3.8,8.5-8.5c0-4.7-3.8-8.5-8.5-8.5h-7.4c-4.7,0-8.5,3.8-8.5,8.5s3.8,8.5,8.5,8.5c0,0,0,0,0,0h1v12.9h-33v17.2
	c-0.2,0-0.3,0-0.5,0H9.8c-4.4,0-8.1,3.6-8.1,8.1v15.1C1.7,77,5.3,80.6,9.8,80.6z M86,57.4c0-0.2,0.2-0.4,0.4-0.4h3.9
	c0.2,0,0.4,0.2,0.4,0.4v15.1c0,0.2-0.2,0.3-0.4,0.4h-3.9c-0.2,0-0.3-0.2-0.4-0.4L86,57.4z M46.3,13.8c-1.7,0-3-1.4-3-3s1.4-3,3-3
	h7.4c1.7,0,3,1.4,3,3s-1.4,3-3,3l0,0H46.3z M21.9,39.9h56.2V90H21.9V39.9z M9.4,57.4c0-0.2,0.2-0.4,0.4-0.4h4c0.2,0,0.4,0.2,0.4,0.4
	v15.1c0,0.2-0.2,0.3-0.4,0.4h-4c-0.2,0-0.4-0.2-0.4-0.4V57.4z"/>
<path d="M36.4,55.5c-5.7,0-10.3,4.6-10.3,10.3c0,5.7,4.6,10.3,10.3,10.3c5.7,0,10.3-4.6,10.3-10.3c0,0,0,0,0,0
	C46.7,60.1,42.1,55.5,36.4,55.5z M36.4,70.3c-2.5,0-4.5-2-4.5-4.5c0-2.5,2-4.5,4.5-4.5c2.5,0,4.5,2,4.5,4.5
	C40.9,68.3,38.9,70.3,36.4,70.3L36.4,70.3z"/>
<path d="M63.6,55.5c-5.7,0-10.3,4.6-10.3,10.3s4.6,10.3,10.3,10.3c5.7,0,10.3-4.6,10.3-10.3c0,0,0,0,0,0
	C73.9,60.1,69.3,55.5,63.6,55.5z M63.6,70.3c-2.5,0-4.5-2-4.5-4.5c0-2.5,2-4.5,4.5-4.5c2.5,0,4.5,2,4.5,4.5
	C68.1,68.3,66.1,70.3,63.6,70.3L63.6,70.3z"/>
</svg>
