<svg xmlns="http://www.w3.org/2000/svg" viewBox="0 0 100 100">
  <path d="M9.8 80.6h4.5v17.1h71.6V80.6h4.4c4.4 0 8-3.6 8.1-8V57.4c0-4.4-3.6-8.1-8.1-8.1h-4.5V32.2h-33V19.3h1a8.5 8.5 0 100-17h-7.4a8.5 8.5 0 100 17h1v12.9h-33v17.2H9.8a8.1 8.1 0 00-8.1 8.1v15.1a8 8 0 008.1 8zM86 57.4c0-.2.2-.4.4-.4h3.9c.2 0 .4.2.4.4v15.1c0 .2-.2.3-.4.4h-3.9c-.2 0-.3-.2-.4-.4V57.4zM46.3 13.8c-1.7 0-3-1.4-3-3s1.4-3 3-3h7.4c1.7 0 3 1.4 3 3s-1.4 3-3 3h-7.4zM21.9 39.9h56.2V90H21.9V39.9zM9.4 57.4c0-.2.2-.4.4-.4h4c.2 0 .4.2.4.4v15.1c0 .2-.2.3-.4.4h-4a.4.4 0 01-.4-.4V57.4z"/>
  <path d="M36.4 55.5a10.3 10.3 0 1010.3 10.3c0-5.7-4.6-10.3-10.3-10.3zm0 14.8c-2.5 0-4.5-2-4.5-4.5s2-4.5 4.5-4.5 4.5 2 4.5 4.5-2 4.5-4.5 4.5zM63.6 55.5a10.3 10.3 0 1010.3 10.3c0-5.7-4.6-10.3-10.3-10.3zm0 14.8c-2.5 0-4.5-2-4.5-4.5s2-4.5 4.5-4.5 4.5 2 4.5 4.5-2 4.5-4.5 4.5z"/>
</svg>
