<?xml version="1.0" encoding="utf-8"?>
<!-- Generator: Adobe Illustrator 24.3.0, SVG Export Plug-In . SVG Version: 6.00 Build 0)  -->
<svg version="1.1" id="Laag_1" xmlns="http://www.w3.org/2000/svg" xmlns:xlink="http://www.w3.org/1999/xlink" x="0px" y="0px"
	 viewBox="0 0 100 100" style="enable-background:new 0 0 100 100;" xml:space="preserve">
<g>
	<path d="M1.9,62.8c0,5.7,4.5,10.2,10.2,10.2s10.2-4.5,10.2-10.2V52.6H12C6.4,52.6,1.9,57.1,1.9,62.8z"/>
	<path d="M37.4,52.6c-5.7,0-10.2,4.5-10.2,10.2c0,0,0,25.2-0.2,25.4c0,5.7,4.5,10.2,10.2,10.2s10.2-4.5,10.2-10.2V62.8
		C47.4,57.1,43.1,52.6,37.4,52.6z"/>
	<path d="M37.2,1.9c-5.7,0-10.2,4.5-10.2,10.2s4.5,10.2,10.2,10.2h10.2V12C47.4,6.4,42.9,1.9,37.2,1.9z"/>
	<path d="M37.2,27.2c0,0-25.2,0-25.4-0.2c-5.7,0-10.2,4.5-10.2,10.2s4.5,10.2,10.2,10.2h25.4c5.7,0,10.2-4.3,10.2-10
		S42.9,27.2,37.2,27.2z"/>
	<path d="M98.1,37.2c0-5.7-4.5-10.2-10.2-10.2c-5.7,0-10.2,4.5-10.2,10.2v10.2H88C93.6,47.4,98.1,42.9,98.1,37.2z"/>
	<path d="M62.6,47.4c5.7,0,10.2-4.5,10.2-10.2V12c0-5.7-4.5-10.2-10.2-10.4c-5.7,0-10.2,4.5-10.2,10.2v25.4
		C52.4,42.9,56.9,47.4,62.6,47.4z"/>
	<path d="M62.8,77.8H52.6V88c0,5.7,4.5,10.2,10.2,10.2S72.9,93.6,72.9,88C72.9,82.3,68.5,77.8,62.8,77.8z"/>
	<path d="M88.2,52.4H62.8c-5.7,0-10.2,4.5-10.2,10.2s4.5,10.2,10.2,10.2h25.4c5.7,0,10.2-4.5,10.2-10.2S93.8,52.4,88.2,52.4z"/>
</g>
</svg>
