<svg xmlns="http://www.w3.org/2000/svg" viewBox="0 0 100 100">
  <title>Icon Slack Logo</title>
  <path d="M1.9 62.8C1.9 68.5 6.4 73 12.1 73s10.2-4.5 10.2-10.2V52.6H12A10 10 0 001.9 62.8zM37.4 52.6c-5.7 0-10.2 4.5-10.2 10.2 0 0 0 25.2-.2 25.4 0 5.7 4.5 10.2 10.2 10.2s10.2-4.5 10.2-10.2V62.8a10 10 0 00-10-10.2zM37.2 1.9C31.5 1.9 27 6.4 27 12.1s4.5 10.2 10.2 10.2h10.2V12A10 10 0 0037.2 1.9zM37.2 27.2s-25.2 0-25.4-.2C6.1 27 1.6 31.5 1.6 37.2s4.5 10.2 10.2 10.2h25.4a10.1 10.1 0 100-20.2zM98.1 37.2c0-5.7-4.5-10.2-10.2-10.2-5.7 0-10.2 4.5-10.2 10.2v10.2H88a10 10 0 0010.1-10.2zM62.6 47.4c5.7 0 10.2-4.5 10.2-10.2V12c0-5.7-4.5-10.2-10.2-10.4-5.7 0-10.2 4.5-10.2 10.2v25.4c0 5.7 4.5 10.2 10.2 10.2zM62.8 77.8H52.6V88c0 5.7 4.5 10.2 10.2 10.2S72.9 93.6 72.9 88a10 10 0 00-10.1-10.2zM88.2 52.4H62.8c-5.7 0-10.2 4.5-10.2 10.2s4.5 10.2 10.2 10.2h25.4c5.7 0 10.2-4.5 10.2-10.2s-4.6-10.2-10.2-10.2z"/>
</svg>
