<?xml version="1.0" encoding="utf-8"?>
<!-- Generator: Adobe Illustrator 24.3.0, SVG Export Plug-In . SVG Version: 6.00 Build 0)  -->
<svg version="1.1" id="Laag_1" xmlns="http://www.w3.org/2000/svg" xmlns:xlink="http://www.w3.org/1999/xlink" x="0px" y="0px"
	 viewBox="0 0 100 100" style="enable-background:new 0 0 100 100;" xml:space="preserve">
<path d="M98.5,19.9c-3.6,1.6-7.5,2.7-11.4,3.1c4.2-2.5,7.3-6.4,8.8-11c-3.9,2.3-8.2,4-12.6,4.8c-3.8-4-9-6.3-14.5-6.3
	c-11,0-19.9,8.9-19.9,19.9c0,1.6,0.2,3.1,0.5,4.5c-16.5-0.8-31.2-8.8-41-20.8c-1.8,3-2.7,6.5-2.7,10c0,6.9,3.5,13,8.9,16.6
	c-3.2-0.1-6.3-1-9-2.5l0,0.3c0,9.6,6.9,17.7,16,19.5c-2.9,0.8-6,0.9-9,0.3c2.5,7.9,9.9,13.7,18.6,13.8c-7.1,5.5-15.8,8.5-24.7,8.5
	c-1.6,0-3.2-0.1-4.7-0.3c9.1,5.9,19.7,9,30.5,8.9c36.6,0,56.7-30.3,56.7-56.7c0-0.9,0-1.7-0.1-2.6C92.5,27.4,95.9,23.9,98.5,19.9z"
	/>
</svg>
