<svg xmlns="http://www.w3.org/2000/svg" viewBox="0 0 100 100">
  <title>Icon Whatsapp logo</title>
  <path fill-rule="evenodd" d="M84.3 15.6a48.2 48.2 0 00-75.7 58l-6.9 25 25.4-6.7a48.2 48.2 0 0057.2-76.3zM50.2 89.5c-7.1 0-14.2-2-20.3-5.5l-1.4-.8-15.2 3.9 3.9-14.8-1-1.6a40 40 0 1134 18.8zm22.1-29.9c-1.2-.6-7.1-3.6-8.3-4-1.2-.4-2-.6-2.8.6-.8 1.2-3.2 3.9-3.7 4.7-.8.8-1.4 1-2.6.4s-5.1-1.8-9.7-5.9c-3.5-3.2-5.9-7.1-6.7-8.3-.8-1.2 0-1.8.6-2.4l1.8-2.2c.6-.8.8-1.2 1.2-2 .4-.8.2-1.6-.2-2.2-.4-.6-2.8-6.5-3.7-8.9-1-2.4-2-2-2.8-2H33c-.8 0-2.2.4-3.2 1.6-1.2 1.2-4.1 4.1-4.1 10.1s4.3 11.6 4.9 12.4c.6.8 8.5 13 20.5 18.1l6.9 2.6c3 1 5.5.8 7.5.4 2.4-.4 7.1-3 8.1-5.7 1-2.8 1-5.1.8-5.7-.1-.7-.9-1-2.1-1.6z" clip-rule="evenodd"/>
</svg>
