<?xml version="1.0" encoding="utf-8"?>
<!-- Generator: Adobe Illustrator 24.3.0, SVG Export Plug-In . SVG Version: 6.00 Build 0)  -->
<svg version="1.1" id="Laag_1" xmlns="http://www.w3.org/2000/svg" xmlns:xlink="http://www.w3.org/1999/xlink" x="0px" y="0px"
	 viewBox="0 0 100 100" style="enable-background:new 0 0 100 100;" xml:space="preserve">
<style type="text/css">
	.st0{fill-rule:evenodd;clip-rule:evenodd;}
</style>
<path class="st0" d="M84.3,15.6C75.2,6.5,63.2,1.4,50.2,1.4C23.6,1.4,2.1,23.1,2.1,49.5c0,8.5,2.2,16.8,6.5,24.1l-6.9,25l25.4-6.7
	c7.1,3.7,15,5.9,23.1,5.9c26.6,0,48.1-21.7,48.1-48.1C98.3,36.7,93.4,24.7,84.3,15.6z M50.2,89.5c-7.1,0-14.2-2-20.3-5.5l-1.4-0.8
	l-15.2,3.9l3.9-14.8l-1-1.6c-3.9-6.3-6.1-13.8-6.1-21.3c0-22.1,17.9-40,40-40c10.6,0,20.7,4.1,28.2,11.8C85.9,28.8,90,38.9,90,49.7
	C90.2,71.6,72.3,89.5,50.2,89.5z M72.3,59.6C71.1,59,65.2,56,64,55.6c-1.2-0.4-2-0.6-2.8,0.6c-0.8,1.2-3.2,3.9-3.7,4.7
	c-0.8,0.8-1.4,1-2.6,0.4s-5.1-1.8-9.7-5.9c-3.5-3.2-5.9-7.1-6.7-8.3c-0.8-1.2,0-1.8,0.6-2.4c0.6-0.6,1.2-1.4,1.8-2.2
	c0.6-0.8,0.8-1.2,1.2-2c0.4-0.8,0.2-1.6-0.2-2.2c-0.4-0.6-2.8-6.5-3.7-8.9c-1-2.4-2-2-2.8-2H33c-0.8,0-2.2,0.4-3.2,1.6
	c-1.2,1.2-4.1,4.1-4.1,10.1s4.3,11.6,4.9,12.4c0.6,0.8,8.5,13,20.5,18.1c3,1.2,5.1,2,6.9,2.6c3,1,5.5,0.8,7.5,0.4
	c2.4-0.4,7.1-3,8.1-5.7c1-2.8,1-5.1,0.8-5.7C74.3,60.5,73.5,60.2,72.3,59.6z"/>
</svg>
