<?xml version="1.0" encoding="utf-8"?>
<!-- Generator: Adobe Illustrator 24.3.0, SVG Export Plug-In . SVG Version: 6.00 Build 0)  -->
<svg version="1.1" id="Laag_1" xmlns="http://www.w3.org/2000/svg" xmlns:xlink="http://www.w3.org/1999/xlink" x="0px" y="0px"
	 viewBox="0 0 100 100" style="enable-background:new 0 0 100 100;" xml:space="preserve">
<path d="M77,53.1c-0.1-12.5,10.2-18.5,10.7-18.8c-5.8-8.5-14.8-9.6-18.1-9.8c-7.7-0.8-15,4.5-18.9,4.5c-3.9,0-9.9-4.4-16.3-4.3
	c-8.4,0.1-16.1,4.9-20.4,12.4c-8.7,15.1-2.2,37.5,6.3,49.8c4.1,6,9.1,12.7,15.6,12.5c6.3-0.2,8.6-4,16.2-4s9.7,4,16.3,3.9
	c6.7-0.1,11-6.1,15.1-12.1c4.8-7,6.7-13.7,6.8-14C90.1,73,77.1,68,77,53.1z M64.5,16.4c3.4-4.2,5.8-10,5.1-15.8
	c-5,0.2-11,3.3-14.5,7.5c-3.2,3.7-6,9.6-5.2,15.3C55.4,23.8,61.1,20.6,64.5,16.4z"/>
</svg>
