<?xml version="1.0" encoding="utf-8"?>
<!-- Generator: Adobe Illustrator 24.3.0, SVG Export Plug-In . SVG Version: 6.00 Build 0)  -->
<svg version="1.1" id="Laag_1" xmlns="http://www.w3.org/2000/svg" xmlns:xlink="http://www.w3.org/1999/xlink" x="0px" y="0px"
	 viewBox="0 0 100 100" style="enable-background:new 0 0 100 100;" xml:space="preserve">
<path d="M26.8,27.4c-2.5-2.1-6.3-1.8-8.4,0.8l-15,18c-1.9,2.2-1.9,5.5,0,7.7l15,18c2.1,2.5,5.9,2.9,8.4,0.8c2.5-2.1,2.9-5.9,0.8-8.4
	L15.8,50l11.8-14.2C29.7,33.3,29.4,29.5,26.8,27.4L26.8,27.4z M57.2,14.1c-3.2-0.6-6.4,1.5-7.1,4.7l-12,60c-0.7,3.2,1.4,6.4,4.7,7
	c0,0,0,0,0,0C43.2,86,43.6,86,44,86c2.9,0,5.3-2,5.9-4.8l12-60C62.5,17.9,60.4,14.8,57.2,14.1C57.2,14.1,57.2,14.1,57.2,14.1
	L57.2,14.1z M96.6,46.2l-15-18c-2.1-2.5-5.9-2.9-8.4-0.8c-2.5,2.1-2.9,5.9-0.8,8.4L84.2,50L72.4,64.1c-2.1,2.5-1.8,6.3,0.8,8.4
	c2.5,2.1,6.3,1.8,8.4-0.8l0,0l15-18C98.5,51.6,98.5,48.4,96.6,46.2z"/>
</svg>
