<?xml version="1.0" encoding="utf-8"?>
<!-- Generator: Adobe Illustrator 24.3.0, SVG Export Plug-In . SVG Version: 6.00 Build 0)  -->
<svg version="1.1" id="Laag_1" xmlns="http://www.w3.org/2000/svg" xmlns:xlink="http://www.w3.org/1999/xlink" x="0px" y="0px"
	 viewBox="0 0 100 100" style="enable-background:new 0 0 100 100;" xml:space="preserve">
<path d="M84.9,2.1h-70C7.7,2.1,2.1,7.9,2.1,14.9v70c0,7.2,5.8,12.8,12.8,12.8h34.6V63.5h-8.9c-1.2,0-2.1-1-2.1-2.1V50.3
	c0-1.2,1-2.1,2.1-2.1h8.9V37.5c0-12.4,7.6-19.1,18.7-19.1h9.1c1.2,0,2.1,1,2.1,2.1v9.3c0,1.2-1,2.1-2.1,2.1h-5.6c-6,0-7.2,2.9-7.2,7
	v9.3h13.2c1.2,0,2.1,1.2,2.1,2.3l-1.4,11.1c-0.2,1-1,1.9-2.1,1.9H64.5v34.2h20.6c7.2,0,12.8-5.8,12.8-12.8v-70
	C97.9,7.7,92.1,2.1,84.9,2.1z"/>
</svg>
