<?xml version="1.0" encoding="utf-8"?>
<!-- Generator: Adobe Illustrator 24.3.0, SVG Export Plug-In . SVG Version: 6.00 Build 0)  -->
<svg version="1.1" id="Laag_1" xmlns="http://www.w3.org/2000/svg" xmlns:xlink="http://www.w3.org/1999/xlink" x="0px" y="0px"
	 viewBox="0 0 100 100" style="enable-background:new 0 0 100 100;" xml:space="preserve">
<path d="M10.3,50c0-8.4,6.8-15.2,15.2-15.2h19.6v-9.3H25.5C12,25.5,1,36.5,1,50s11,24.5,24.5,24.5h19.6v-9.3H25.5
	C17.1,65.2,10.3,58.4,10.3,50z M30.4,54.9h39.2v-9.8H30.4V54.9z M74.5,25.5H54.9v9.3h19.6c8.4,0,15.2,6.8,15.2,15.2
	s-6.8,15.2-15.2,15.2H54.9v9.3h19.6C88,74.5,99,63.5,99,50S88,25.5,74.5,25.5z"/>
</svg>
