<?xml version="1.0" encoding="utf-8"?>
<!-- Generator: Adobe Illustrator 24.3.0, SVG Export Plug-In . SVG Version: 6.00 Build 0)  -->
<svg version="1.1" id="Laag_1" xmlns="http://www.w3.org/2000/svg" xmlns:xlink="http://www.w3.org/1999/xlink" x="0px" y="0px"
	 viewBox="0 0 100 100" style="enable-background:new 0 0 100 100;" xml:space="preserve">
<path id="search-big" d="M97.8,87.9L72.6,62.7c-0.5-0.5-1.2-0.9-1.9-1.1c4.5-6.3,7.1-13.9,7.1-22.2c0-21.2-17.2-38.5-38.5-38.5
	S0.9,18.1,0.9,39.4s17.2,38.5,38.5,38.5c8.3,0,16-2.7,22.2-7.1c0.2,0.7,0.6,1.3,1.1,1.9l25.2,25.2c2.1,2.1,6,1.6,8.7-1.2
	C99.4,93.9,99.9,90,97.8,87.9z M39.4,63.9c-13.5,0-24.5-11-24.5-24.5s11-24.5,24.5-24.5s24.5,11,24.5,24.5S52.9,63.9,39.4,63.9z"/>
</svg>
