<svg xmlns="http://www.w3.org/2000/svg" viewBox="0 0 1484.041 1126.444"><path d="M1355.167 970.385c-21.381 0-38.776-17.402-38.776-38.787 0-21.376 17.396-38.777 38.776-38.777 21.383 0 38.772 17.401 38.772 38.777 0 21.385-17.389 38.787-38.772 38.787zM828.5 1013.832c42.204-60.792 92.223-147.926 122.993-252.595 65.366 13.417 126.385 35.152 192.567 68.18L828.5 1013.832zM509.984 410.93c-10.203 42.548-17.189 87.861-18.77 135.539-59.411.014-117.304.014-182.332.014V337.274c65.029 35.058 133.484 58.692 201.102 73.656zm-383.85-169.496c-21.386 0-38.783-17.393-38.783-38.776 0-21.381 17.396-38.777 38.783-38.777 21.382 0 38.775 17.396 38.775 38.777 0 21.384-17.393 38.776-38.775 38.776zm516.421-113.195c-42.396 59.216-90.928 142.259-121.242 242.985-61.111-13.294-118.75-34.073-180.81-64.768l302.052-178.217zm114.517 573.466c.035-15.894.08-32.054.131-48.375 33.506-6.714 60.104-32.567 68.069-65.601 40.947.033 80.07.058 118.445.058-1.561 44.188-7.951 86.703-17.659 126.985-51.905-8.439-107.011-12.427-168.986-13.067zm-.074 41.35c58.284.595 109.821 4.141 158.19 11.664-40.915 134.825-115.356 240.25-157.331 292.364-.714-96.43-1.001-195.637-.859-304.028zm-235.584 23.948c30.364 101.122 78.951 183.832 121.395 242.573L332.781 830.405c37.949-17.833 103.021-44.258 188.633-63.402zm133.125-179.26c7.84 32.503 33.72 58.014 66.475 65.22-.052 16.492-.099 32.8-.136 48.845-63.855 1.075-122.367 7.805-174.527 17.553-10.044-41.27-16.609-85.26-18.083-131.542 41.14-.018 82.795-.043 126.271-.076zm66.31-155.213c.044 16.32.09 32.59.141 48.846-32.668 7.196-58.496 32.605-66.396 65.003-43.477.036-85.124.057-126.26.076 1.575-45.203 7.98-88.174 17.712-128.525 53.661 9.345 110.525 13.804 174.803 14.6zm-.406-317.425c.045 90.703.108 183.617.305 276.061-60.508-.746-113.772-4.695-163.825-13.083 42.067-137.66 119.765-240.28 163.501-290.291l.019 27.313zm230.183 254.893c-30.685-102.479-79.827-187.658-121.498-247.396l317.654 184.723c-39.227 17.81-106.963 44.222-196.156 62.673zM756.634 115.079l-.02-27.755c41.438 50.653 116.323 154.869 157.818 289.476-47.613 8.076-100.398 13.54-157.495 14.337-.194-92.438-.249-185.349-.303-276.058zm-16.73 498.625c-25.658 0-46.533-20.879-46.533-46.542 0-25.658 20.875-46.534 46.533-46.534 25.65 0 46.534 20.876 46.534 46.534-.002 25.663-20.883 46.542-46.534 46.542zm-18.215 436.206c-43.198-49.289-121.579-152.185-164.225-290.3 49.102-9.091 103.927-15.365 163.342-16.439-.142 109.393.149 209.451.883 306.739zm103.512-503.551C817.167 513.43 790.62 487.69 757.177 481c-.048-16.136-.094-32.299-.136-48.5 61.425-.811 117.887-6.679 168.528-15.375 10.008 40.911 16.6 84.195 18.166 129.306-38.397-.009-77.561-.034-118.534-.072zm340.905-.056c-59.115.081-125.271.129-188.068.129-1.516-47.653-9.195-93.197-19.441-136.117 96.413-20 172.04-48.989 207.51-67.866v203.854h-.001zm-857.223 41.543c65.028 0 123.174 0 182.559-.017 1.439 49.008 7.862 95.413 18.209 138.837-92.266 20.652-159.388 49.493-200.768 68.465V587.846zm651.222 133.587c9.911-42.237 15.459-86.953 16.969-133.632 62.788-.015 129.917-.047 189.029-.143V796.34c-65.022-36.196-135.545-60.151-205.998-74.907zm395.062 119.692c-24.299 0-47.515 9.68-63.78 25.323-24.566-15.415-48.422-29.482-72.068-42.367V291.049L738.621 10.84 286.226 278.1c-24.145-13.512-48.897-28.455-75.287-45.007 3.421-9.53 5.527-19.745 5.527-30.434 0-49.889-40.524-90.473-90.411-90.473-49.891 0-90.441 40.584-90.441 90.473 0 49.892 40.608 90.484 90.503 90.484 24.296 0 44.988-9.677 61.265-25.322 24.111 15.124 50.555 28.946 68.293 41.639v537.669l482.937 278.314 458.413-267.496a1781.467 1781.467 0 0 1 72.704 43.217c-3.42 9.528-5.22 19.747-5.22 30.432 0 49.896 40.679 90.484 90.573 90.484 49.896 0 90.521-40.59 90.521-90.484.001-49.887-40.545-90.471-90.436-90.471z"/></svg>