<svg xmlns="http://www.w3.org/2000/svg" viewBox="0 0 723 177" role="img">
  <title id="heads-up-logo">Heads Up Logo</title>
  <path fill="#fee300" d="M19.2 21.9h122.4v122.4H19.2z"/>
  <path fill="#fffed8" d="M86.8 46.1v26.5l-51 25.8 51 27.2v18.7H70.3l-51.1-28V80.9l67.6-34.8zM109.9 46.1v26.5l31.8 15.6v20.6l-31.8 15.7v19.8h14.9l16.9-9.2V62.7l-31.8-16.6z"/>
  <path fill="#0000ff" d="M191 39.6h16.7v34.2h36.1V39.6h16.7v90.1h-16.7V89.3h-36v40.4H191zM334.4 102.4h-44.8c1.6 17.7 24 19.7 31.2 4.7l12.9 4.7c-6.6 18.6-31.6 24.3-47 14-14-9.7-16.8-29.5-10.4-44.4 6.2-17 30.6-22.8 44.9-12.8 11.2 7.5 14 21.4 13.3 33.8zm-16.3-12.6c-2.7-16.5-24.8-16.4-28 0zM347.3 125.6c-7.8-7-7.4-23.6 1.8-30 6.8-6.3 21.3-6 31.2-5.8.2-3.6-.2-8-3.2-10-6-4.4-17-2.8-19.3 5.1l-13.6-3c3-19.7 33-23.2 45-11.2 11.7 9.2 5.7 45.6 7 59h-13l-1.7-8.3c-7.5 10.1-24.9 12.9-34.2 4.2zm28.6-12.2c3.3-2.6 4.6-6.6 4.4-11-4.8.3-15.3-1-18.9 2.1a7.2 7.2 0 00-2.9 6.3c.4 8.8 12.7 7.1 17.4 2.6zM413.6 121.7c-14.5-18.2-8.3-59.6 21-57.9 6.2 0 13.2 2.4 17 7V38.5h16v91.2h-16V123c-7.9 11.8-30.5 9.2-38-1.3zm35.1-9.8c5.6-6.3 5.6-23 0-29.2-5.2-7-16.2-7-21.5 0-5.7 6.3-5.7 22.8 0 29.1a13.7 13.7 0 0021.5 0zM485.3 125.6a24.3 24.3 0 01-9-12.3l12.8-6.9c8.2 22.8 37 3.6 7-5.4-17-5.3-21.9-25.7-5.6-34.8 10-5.2 25.2-2 31 8.2l-9.6 8.7c-3-5.8-15.3-8.9-16.7-.8 1 8 20 9 25 16.3 6.6 6.8 4.7 20.6-2.1 26.4-7.9 7.9-24.5 7.3-32.8.6zM572.8 121.9c-15.4-12.3-7.2-64.6-9.1-82.3h16.7v56.1q0 19.6 16.9 19.6t16.9-19.6V39.6h16.7c-2 18 6.4 69.7-9 82.3-11.2 11.8-38 11.8-49.1 0zM646 64.8h16v6.7c2.7-4.6 9.7-7.9 15.7-7.7 20-.2 29.7 14.2 29.6 33.5.1 19.2-9.7 33.6-29.6 33.5-5.5 0-12.5-2.8-15.7-7V156h-16zm40.3 47c5.7-6.3 5.7-22.8 0-29.1-5.3-7-16.3-7-21.6 0-5.5 6.2-5.5 23 0 29.2a13.7 13.7 0 0021.6 0z"/>
</svg>
