<?xml version="1.0" encoding="utf-8"?>
<!-- Generator: Adobe Illustrator 23.0.3, SVG Export Plug-In . SVG Version: 6.00 Build 0)  -->
<svg version="1.1" id="Laag_1" xmlns="http://www.w3.org/2000/svg" xmlns:xlink="http://www.w3.org/1999/xlink" x="0px" y="0px"
	 viewBox="0 0 56.7 56.7" style="enable-background:new 0 0 56.7 56.7;" xml:space="preserve">
<style type="text/css">
	.st0{fill:#1D1D1B;}
</style>
<g>
	<path class="st0" d="M46.5,3.9h-36c-3.7,0-6.6,3-6.6,6.6v36c0,3.7,3,6.6,6.6,6.6h17.8l0-17.6h-4.6c-0.6,0-1.1-0.5-1.1-1.1l0-5.7
		c0-0.6,0.5-1.1,1.1-1.1h4.6v-5.5c0-6.4,3.9-9.8,9.6-9.8h4.7c0.6,0,1.1,0.5,1.1,1.1v4.8c0,0.6-0.5,1.1-1.1,1.1l-2.9,0
		c-3.1,0-3.7,1.5-3.7,3.6v4.8h6.8c0.6,0,1.1,0.6,1.1,1.2l-0.7,5.7c-0.1,0.5-0.5,1-1.1,1H36l0,17.6h10.6c3.7,0,6.6-3,6.6-6.6v-36
		C53.2,6.8,50.2,3.9,46.5,3.9L46.5,3.9z M46.5,3.9"/>
</g>
</svg>
