<?xml version="1.0" encoding="UTF-8"?>
<svg enable-background="new 0 0 56.7 56.7" version="1.1" viewBox="0 0 56.7 56.7" xml:space="preserve" xmlns="http://www.w3.org/2000/svg">


	<path d="m46.5 3.9h-36c-3.7 0-6.6 3-6.6 6.6v36c0 3.7 3 6.6 6.6 6.6h17.8v-17.6h-4.6c-0.6 0-1.1-0.5-1.1-1.1v-5.7c0-0.6 0.5-1.1 1.1-1.1h4.6v-5.5c0-6.4 3.9-9.8 9.6-9.8h4.7c0.6 0 1.1 0.5 1.1 1.1v4.8c0 0.6-0.5 1.1-1.1 1.1h-2.9c-3.1 0-3.7 1.5-3.7 3.6v4.8h6.8c0.6 0 1.1 0.6 1.1 1.2l-0.7 5.7c-0.1 0.5-0.5 1-1.1 1h-6.1v17.6h10.6c3.7 0 6.6-3 6.6-6.6v-36c0-3.8-3-6.7-6.7-6.7z"/>

</svg>
