<?xml version="1.0" encoding="UTF-8"?>
<svg enable-background="new 0 0 56.7 56.7" version="1.1" viewBox="0 0 56.7 56.7" xml:space="preserve" xmlns="http://www.w3.org/2000/svg">
	<path d="m28.3 3.7h21c1.9 0 3.4 1.3 3.6 3v0.5 42.3c0 1.9-1.5 3.4-3.3 3.5h-0.4-41.9c-1.8 0-3.1-0.9-3.5-2.5-0.1-0.3-0.1-0.7-0.1-1v-42.1c0-2 1.5-3.5 3.5-3.6h5.1c5.3-0.1 10.7-0.1 16-0.1zm1.7 21.5v-2.5c0-0.4-0.1-0.5-0.6-0.5h-6c-0.6 0-0.6 0-0.6 0.6v22.5c0 0.5 0.1 0.6 0.6 0.6h6.2c0.6 0 0.6 0 0.6-0.6v-11.3c0-0.8 0.1-1.6 0.2-2.3 0.3-1.6 1-2.9 2.7-3.3 0.5-0.1 1.1-0.2 1.6-0.1 1.8 0 2.9 0.8 3.2 2.6 0.2 0.9 0.3 1.9 0.3 2.9v11.6c0 0.5 0.1 0.6 0.6 0.6h6.2c0.4 0 0.6-0.1 0.6-0.6v-13.5c0-1.5-0.2-3-0.6-4.5-0.6-2.6-2.1-4.5-4.8-5.3-0.9-0.3-1.9-0.3-2.9-0.4-1.6-0.2-3.1 0.1-4.6 0.9-0.9 0.5-1.9 1.5-2.7 2.6zm-19.1 8.8v11.3c0 0.4 0.1 0.6 0.5 0.6h6.5c0.4 0 0.5-0.1 0.5-0.5v-22.6c0-0.4-0.1-0.5-0.5-0.5h-6.4c-0.5 0-0.6 0.1-0.6 0.6v11.1zm3.7-15c2.4 0 4.3-1.9 4.3-4.2 0-2.4-1.9-4.3-4.3-4.3s-4.3 1.9-4.3 4.3c0.1 2.3 2 4.2 4.3 4.2z"/>
</svg>
