<?xml version="1.0" encoding="utf-8"?>
<!-- Generator: Adobe Illustrator 23.0.3, SVG Export Plug-In . SVG Version: 6.00 Build 0)  -->
<svg version="1.1" id="Laag_1" xmlns="http://www.w3.org/2000/svg" xmlns:xlink="http://www.w3.org/1999/xlink" x="0px" y="0px"
	 viewBox="0 0 56.7 56.7" style="enable-background:new 0 0 56.7 56.7;" xml:space="preserve">
<style type="text/css">
	.st0{fill:#1D1D1B;}
</style>
<g>
	<g>
		<path class="st0" d="M28.3,3.7c7,0,14,0,21,0c1.9,0,3.4,1.3,3.6,3c0,0.2,0,0.4,0,0.5c0,14.1,0,28.2,0,42.3c0,1.9-1.5,3.4-3.3,3.5
			c-0.1,0-0.2,0-0.4,0c-14,0-27.9,0-41.9,0c-1.8,0-3.1-0.9-3.5-2.5c-0.1-0.3-0.1-0.7-0.1-1c0-14,0-28.1,0-42.1c0-2,1.5-3.5,3.5-3.6
			c1.7,0,3.4,0,5.1,0C17.6,3.7,23,3.7,28.3,3.7z M30,25.2c0-0.8,0-1.7,0-2.5c0-0.4-0.1-0.5-0.6-0.5c-2,0-4,0-6,0
			c-0.6,0-0.6,0-0.6,0.6c0,7.5,0,15,0,22.5c0,0.5,0.1,0.6,0.6,0.6c2.1,0,4.2,0,6.2,0c0.6,0,0.6,0,0.6-0.6c0-3.8,0-7.5,0-11.3
			c0-0.8,0.1-1.6,0.2-2.3c0.3-1.6,1-2.9,2.7-3.3c0.5-0.1,1.1-0.2,1.6-0.1c1.8,0,2.9,0.8,3.2,2.6c0.2,0.9,0.3,1.9,0.3,2.9
			c0,3.9,0,7.7,0,11.6c0,0.5,0.1,0.6,0.6,0.6c2.1,0,4.2,0,6.2,0c0.4,0,0.6-0.1,0.6-0.6c0-4.5,0-9,0-13.5c0-1.5-0.2-3-0.6-4.5
			c-0.6-2.6-2.1-4.5-4.8-5.3c-0.9-0.3-1.9-0.3-2.9-0.4c-1.6-0.2-3.1,0.1-4.6,0.9C31.8,23.1,30.8,24.1,30,25.2z M10.9,34
			c0,3.8,0,7.5,0,11.3c0,0.4,0.1,0.6,0.5,0.6c2.2,0,4.3,0,6.5,0c0.4,0,0.5-0.1,0.5-0.5c0-7.5,0-15.1,0-22.6c0-0.4-0.1-0.5-0.5-0.5
			c-2.1,0-4.2,0-6.4,0c-0.5,0-0.6,0.1-0.6,0.6C10.9,26.5,10.9,30.2,10.9,34z M14.6,19c2.4,0,4.3-1.9,4.3-4.2c0-2.4-1.9-4.3-4.3-4.3
			c-2.4,0-4.3,1.9-4.3,4.3C10.4,17.1,12.3,19,14.6,19z"/>
	</g>
</g>
</svg>
