<svg xmlns="http://www.w3.org/2000/svg" viewBox="0 0 100 100">
  <path d="M11.17,79.53H15l.5,0V96.08h69.1V79.51l.5,0h3.78a7.79,7.79,0,0,0,7.78-7.77V57.15a7.79,7.79,0,0,0-7.78-7.78H85.05c-.17,0-.33,0-.5,0V32.83H52.65V20.38h.94a8.23,8.23,0,0,0,0-16.46H46.41a8.23,8.23,0,1,0,0,16.46h.94V32.83H15.45V49.4c-.17,0-.33,0-.5,0H11.17a7.79,7.79,0,0,0-7.78,7.78V71.76A7.79,7.79,0,0,0,11.17,79.53ZM84.71,57.15a.36.36,0,0,1,.34-.35h3.78a.37.37,0,0,1,.35.35V71.76a.36.36,0,0,1-.35.34H85.05a.35.35,0,0,1-.34-.34ZM46.41,15.08a2.93,2.93,0,0,1,0-5.86h7.18a2.93,2.93,0,0,1,0,5.86ZM22.88,40.26H77.12V88.65H22.88ZM10.82,57.15a.37.37,0,0,1,.35-.35H15a.37.37,0,0,1,.35.35V71.76a.36.36,0,0,1-.35.34H11.17a.36.36,0,0,1-.35-.34Z"/>
  <path d="M36.86,55.31a9.94,9.94,0,1,0,9.94,9.93A9.94,9.94,0,0,0,36.86,55.31Zm0,14.3a4.37,4.37,0,1,1,4.37-4.37A4.37,4.37,0,0,1,36.86,69.61Z"/>
  <path d="M63.14,55.31a9.94,9.94,0,1,0,9.94,9.93A9.94,9.94,0,0,0,63.14,55.31Zm0,14.3a4.37,4.37,0,1,1,4.37-4.37A4.37,4.37,0,0,1,63.14,69.61Z"/>
</svg>
