<?xml version="1.0" encoding="UTF-8"?>
<svg enable-background="new 0 0 56.7 56.7" version="1.1" viewBox="0 0 56.7 56.7" xml:space="preserve" xmlns="http://www.w3.org/2000/svg">
  <path fill="#1D1D1B" d="m14.1 34.9c0 2.9-2.3 5.2-5.2 5.2s-5.2-2.3-5.2-5.2 2.3-5.2 5.2-5.2h5.2v5.2z"/>
  <path fill="#1D1D1B" d="m16.7 34.9c0-2.9 2.3-5.2 5.2-5.2s5.1 2.3 5.1 5.2v13c0 2.9-2.3 5.2-5.2 5.2s-5.2-2.3-5.2-5.2c0.1-0.1 0.1-13 0.1-13z"/>
  <path fill="#1D1D1B" d="M21.8,14.1c-2.9,0-5.2-2.3-5.2-5.2s2.3-5.2,5.2-5.2S27,6,27,8.9v5.2H21.8z"/>
  <path fill="#1D1D1B" d="m21.8 16.7c2.9 0 5.2 2.3 5.2 5.2s-2.3 5.1-5.2 5.1h-13c-2.9 0-5.2-2.3-5.2-5.2s2.3-5.2 5.2-5.2c0.1 0.1 13 0.1 13 0.1z"/>
  <path fill="#1D1D1B" d="m42.6 21.8c0-2.9 2.3-5.2 5.2-5.2s5.2 2.3 5.2 5.2-2.3 5.2-5.2 5.2h-5.2v-5.2z"/>
  <path fill="#1D1D1B" d="m40 21.8c0 2.9-2.3 5.2-5.2 5.2s-5.2-2.3-5.2-5.2v-13c0-2.9 2.3-5.2 5.2-5.2 2.9 0.1 5.2 2.4 5.2 5.3v12.9z"/>
  <path fill="#1D1D1B" d="m34.9 42.6c2.9 0 5.2 2.3 5.2 5.2s-2.3 5.2-5.2 5.2-5.2-2.3-5.2-5.2v-5.2h5.2z"/>
  <path fill="#1D1D1B" d="m34.9 40c-2.9 0-5.2-2.3-5.2-5.2s2.3-5.2 5.2-5.2h13c2.9 0 5.2 2.3 5.2 5.2s-2.3 5.2-5.2 5.2h-13z"/>
</svg>
