<?xml version="1.0" encoding="UTF-8"?>
<svg enable-background="new 0 0 56.7 56.7" version="1.1" viewBox="0 0 56.7 56.7" xml:space="preserve" xmlns="http://www.w3.org/2000/svg">

	<path d="m3.7 34.9c0 2.9 2.3 5.2 5.2 5.2s5.2-2.3 5.2-5.2v-5.2h-5.2c-2.9 0-5.2 2.3-5.2 5.2z"/>
	<path d="m21.9 29.7c-2.9 0-5.2 2.3-5.2 5.2 0 0 0 12.9-0.1 13 0 2.9 2.3 5.2 5.2 5.2s5.2-2.3 5.2-5.2v-13c0-2.9-2.2-5.2-5.1-5.2z"/>
	<path d="m21.8 3.7c-2.9 0-5.2 2.3-5.2 5.2s2.3 5.2 5.2 5.2h5.2v-5.2c0-2.9-2.3-5.2-5.2-5.2z"/>
	<path d="m21.8 16.7s-12.9 0-13-0.1c-2.9 0-5.2 2.3-5.2 5.2s2.3 5.2 5.2 5.2h13c2.9 0 5.2-2.2 5.2-5.1s-2.3-5.2-5.2-5.2z"/>
	<path d="m53 21.8c0-2.9-2.3-5.2-5.2-5.2s-5.2 2.3-5.2 5.2v5.2h5.2c2.9 0 5.2-2.3 5.2-5.2z"/>
	<path d="m34.8 27c2.9 0 5.2-2.3 5.2-5.2v-12.9c0-2.9-2.3-5.2-5.2-5.3-2.9 0-5.2 2.3-5.2 5.2v13c0 2.9 2.3 5.2 5.2 5.2z"/>
	<path d="m34.9 42.6h-5.2v5.2c0 2.9 2.3 5.2 5.2 5.2s5.2-2.3 5.2-5.2-2.3-5.2-5.2-5.2z"/>
	<path d="m47.9 29.6h-13c-2.9 0-5.2 2.3-5.2 5.2s2.3 5.2 5.2 5.2h13c2.9 0 5.2-2.3 5.2-5.2s-2.3-5.2-5.2-5.2z"/>

</svg>
