<?xml version="1.0" encoding="utf-8"?>
<!-- Generator: Adobe Illustrator 23.0.3, SVG Export Plug-In . SVG Version: 6.00 Build 0)  -->
<svg version="1.1" id="Laag_1" xmlns="http://www.w3.org/2000/svg" xmlns:xlink="http://www.w3.org/1999/xlink" x="0px" y="0px"
	 viewBox="0 0 56.7 56.7" style="enable-background:new 0 0 56.7 56.7;" xml:space="preserve">
<g>
	<g>
		<path d="M13.7,35.5c0,2.8-2.3,5.2-5.2,5.2s-5.2-2.3-5.2-5.2c0-2.8,2.3-5.2,5.2-5.2h5.2V35.5z"/>
		<path d="M16.3,35.5c0-2.8,2.3-5.2,5.2-5.2s5.2,2.3,5.2,5.2v13c0,2.8-2.3,5.2-5.2,5.2s-5.2-2.3-5.2-5.2
			C16.3,48.5,16.3,35.5,16.3,35.5z"/>
	</g>
	<g>
		<path d="M21.5,14.7c-2.8,0-5.2-2.3-5.2-5.2s2.3-5.2,5.2-5.2s5.2,2.3,5.2,5.2v5.2H21.5z"/>
		<path d="M21.5,17.3c2.8,0,5.2,2.3,5.2,5.2s-2.3,5.2-5.2,5.2h-13c-2.8,0-5.2-2.3-5.2-5.2s2.3-5.2,5.2-5.2
			C8.5,17.3,21.5,17.3,21.5,17.3z"/>
	</g>
	<g>
		<path d="M42.3,22.5c0-2.8,2.3-5.2,5.2-5.2c2.8,0,5.2,2.3,5.2,5.2s-2.3,5.2-5.2,5.2h-5.2V22.5z"/>
		<path d="M39.7,22.5c0,2.8-2.3,5.2-5.2,5.2c-2.8,0-5.2-2.3-5.2-5.2v-13c0-2.8,2.3-5.2,5.2-5.2c2.8,0,5.2,2.3,5.2,5.2V22.5z"/>
	</g>
	<g>
		<path d="M34.5,43.3c2.8,0,5.2,2.3,5.2,5.2c0,2.8-2.3,5.2-5.2,5.2c-2.8,0-5.2-2.3-5.2-5.2v-5.2H34.5z"/>
		<path d="M34.5,40.7c-2.8,0-5.2-2.3-5.2-5.2c0-2.8,2.3-5.2,5.2-5.2h13c2.8,0,5.2,2.3,5.2,5.2c0,2.8-2.3,5.2-5.2,5.2H34.5z"/>
	</g>
</g>
</svg>
