<?xml version="1.0" encoding="utf-8"?>
<!-- Generator: Adobe Illustrator 23.0.3, SVG Export Plug-In . SVG Version: 6.00 Build 0)  -->
<svg version="1.1" id="Laag_1" xmlns="http://www.w3.org/2000/svg" xmlns:xlink="http://www.w3.org/1999/xlink" x="0px" y="0px"
	 viewBox="0 0 56.7 56.7" style="enable-background:new 0 0 56.7 56.7;" xml:space="preserve">
<style type="text/css">
	.st0{fill:#1D1D1B;}
</style>
<g>
	<g>
		<path class="st0" d="M14.1,34.9c0,2.9-2.3,5.2-5.2,5.2s-5.2-2.3-5.2-5.2c0-2.9,2.3-5.2,5.2-5.2h5.2V34.9z"/>
		<path class="st0" d="M16.7,34.9c0-2.9,2.3-5.2,5.2-5.2S27,32,27,34.9v13c0,2.9-2.3,5.2-5.2,5.2s-5.2-2.3-5.2-5.2
			C16.7,47.8,16.7,34.9,16.7,34.9z"/>
	</g>
	<g>
		<path class="st0" d="M21.8,14.1c-2.9,0-5.2-2.3-5.2-5.2s2.3-5.2,5.2-5.2S27,6,27,8.9v5.2H21.8z"/>
		<path class="st0" d="M21.8,16.7c2.9,0,5.2,2.3,5.2,5.2S24.7,27,21.8,27h-13c-2.9,0-5.2-2.3-5.2-5.2s2.3-5.2,5.2-5.2
			C8.9,16.7,21.8,16.7,21.8,16.7z"/>
	</g>
	<g>
		<path class="st0" d="M42.6,21.8c0-2.9,2.3-5.2,5.2-5.2c2.9,0,5.2,2.3,5.2,5.2S50.7,27,47.8,27h-5.2V21.8z"/>
		<path class="st0" d="M40,21.8c0,2.9-2.3,5.2-5.2,5.2c-2.9,0-5.2-2.3-5.2-5.2v-13c0-2.9,2.3-5.2,5.2-5.2C37.7,3.7,40,6,40,8.9V21.8
			z"/>
	</g>
	<g>
		<path class="st0" d="M34.9,42.6c2.9,0,5.2,2.3,5.2,5.2c0,2.9-2.3,5.2-5.2,5.2c-2.9,0-5.2-2.3-5.2-5.2v-5.2H34.9z"/>
		<path class="st0" d="M34.9,40c-2.9,0-5.2-2.3-5.2-5.2c0-2.9,2.3-5.2,5.2-5.2h13c2.9,0,5.2,2.3,5.2,5.2c0,2.9-2.3,5.2-5.2,5.2H34.9
			z"/>
	</g>
</g>
</svg>
