<?xml version="1.0" encoding="UTF-8"?>
<svg enable-background="new 0 0 56.7 56.7" version="1.1" viewBox="0 0 56.7 56.7" xml:space="preserve" xmlns="http://www.w3.org/2000/svg">
	<path style="fill-rule:evenodd;clip-rule:evenodd;" class="st0" d="m46.6 11.4c-4.6-4.6-10.7-7.2-17.3-7.2-13.5 0-24.4 11-24.4 24.4 0 4.3 1.1 8.5 3.3 12.2l-3.5 12.7 12.9-3.4c3.6 1.9 7.6 3 11.7 3 13.5 0 24.4-11 24.4-24.4 0-6.6-2.5-12.7-7.1-17.3zm-17.3 37.5c-3.6 0-7.2-1-10.3-2.8l-0.7-0.4-7.7 2 2-7.5-0.5-0.8c-2-3.2-3.1-7-3.1-10.8 0-11.2 9.1-20.3 20.3-20.3 5.4 0 10.5 2.1 14.3 6 3.8 3.8 5.9 8.9 5.9 14.4 0.1 11.1-9 20.2-20.2 20.2zm11.2-15.2c-0.6-0.3-3.6-1.8-4.2-2s-1-0.3-1.4 0.3-1.6 2-1.9 2.4c-0.4 0.4-0.7 0.5-1.3 0.2s-2.6-0.9-4.9-3c-1.8-1.6-3-3.6-3.4-4.2s0-0.9 0.3-1.2 0.6-0.7 0.9-1.1 0.4-0.6 0.6-1 0.1-0.8-0.1-1.1-1.4-3.3-1.9-4.5-1-1-1.4-1h-1.2c-0.4 0-1.1 0.2-1.6 0.8-0.6 0.6-2.1 2.1-2.1 5.1s2.2 5.9 2.5 6.3 4.3 6.6 10.4 9.2c1.5 0.6 2.6 1 3.5 1.3 1.5 0.5 2.8 0.4 3.8 0.2 1.2-0.2 3.6-1.5 4.1-2.9s0.5-2.6 0.4-2.9c-0.1-0.4-0.5-0.6-1.1-0.9z"/>
</svg>
