<?xml version="1.0" encoding="utf-8"?>
<!-- Generator: Adobe Illustrator 23.0.3, SVG Export Plug-In . SVG Version: 6.00 Build 0)  -->
<svg version="1.1" id="Laag_1" xmlns="http://www.w3.org/2000/svg" xmlns:xlink="http://www.w3.org/1999/xlink" x="0px" y="0px"
	 viewBox="0 0 56.7 56.7" style="enable-background:new 0 0 56.7 56.7;" xml:space="preserve">
<style type="text/css">
	.st0{fill-rule:evenodd;clip-rule:evenodd;}
</style>
<g id="WA_Logo">
	<g>
		<path class="st0" d="M46.6,11.4C42,6.8,35.9,4.2,29.3,4.2c-13.5,0-24.4,11-24.4,24.4c0,4.3,1.1,8.5,3.3,12.2L4.7,53.5l12.9-3.4
			c3.6,1.9,7.6,3,11.7,3h0c0,0,0,0,0,0c13.5,0,24.4-11,24.4-24.4C53.7,22.1,51.2,16,46.6,11.4z M29.3,48.9L29.3,48.9
			c-3.6,0-7.2-1-10.3-2.8l-0.7-0.4l-7.7,2l2-7.5l-0.5-0.8c-2-3.2-3.1-7-3.1-10.8C9,17.4,18.1,8.3,29.3,8.3c5.4,0,10.5,2.1,14.3,6
			c3.8,3.8,5.9,8.9,5.9,14.4C49.6,39.8,40.5,48.9,29.3,48.9z M40.5,33.7c-0.6-0.3-3.6-1.8-4.2-2c-0.6-0.2-1-0.3-1.4,0.3
			c-0.4,0.6-1.6,2-1.9,2.4c-0.4,0.4-0.7,0.5-1.3,0.2c-0.6-0.3-2.6-0.9-4.9-3c-1.8-1.6-3-3.6-3.4-4.2c-0.4-0.6,0-0.9,0.3-1.2
			c0.3-0.3,0.6-0.7,0.9-1.1c0.3-0.4,0.4-0.6,0.6-1c0.2-0.4,0.1-0.8-0.1-1.1c-0.2-0.3-1.4-3.3-1.9-4.5c-0.5-1.2-1-1-1.4-1
			c-0.4,0-0.8,0-1.2,0c-0.4,0-1.1,0.2-1.6,0.8c-0.6,0.6-2.1,2.1-2.1,5.1c0,3,2.2,5.9,2.5,6.3c0.3,0.4,4.3,6.6,10.4,9.2
			c1.5,0.6,2.6,1,3.5,1.3c1.5,0.5,2.8,0.4,3.8,0.2c1.2-0.2,3.6-1.5,4.1-2.9c0.5-1.4,0.5-2.6,0.4-2.9C41.5,34.2,41.1,34,40.5,33.7z"
			/>
	</g>
</g>
</svg>
