<svg xmlns="http://www.w3.org/2000/svg" viewBox="0 0 189.556 32">
  <path fill="#070de9" d="M5.044 7.714c-.537 3.031.493 7.316 2.9 11.5 2.419 4.18 5.614 7.211 8.51 8.286v-23c-4.837 0-9.077 1.254-11.436 3.21z"/>
  <path fill="#e9d100" d="M24.93 19.21c2.419-4.18 3.434-8.465 2.926-11.5C25.5 5.773 21.287 4.5 16.435 4.5v23c2.882-1.075 6.091-4.106 8.51-8.286z" data-name="Shape"/>
  <path fill="#070de9" d="M43.84 7.231a8.416 8.416 0 0 1 3.9.922 7.044 7.044 0 0 1 2.9 2.824 9.336 9.336 0 0 1 1.1 4.74 9.328 9.328 0 0 1-1.1 4.74 7.051 7.051 0 0 1-2.9 2.826 8.42 8.42 0 0 1-3.9.92h-5.31V7.231zm3.067 12.814q1.636-1.248 1.637-4.328t-1.637-4.328a6.5 6.5 0 0 0-4.061-1.248h-1.164v11.153h1.164a6.5 6.5 0 0 0 4.061-1.249zM53.653 21.088a7.564 7.564 0 0 1 0-5.989 5.531 5.531 0 0 1 1.94-2.376 5.6 5.6 0 0 1 3.309-.934 5.3 5.3 0 0 1 5.092 3.2 7 7 0 0 1 .606 2.837v1.236h-8.413A2.96 2.96 0 0 0 57 21a2.69 2.69 0 0 0 2.073.825 3.012 3.012 0 0 0 1.709-.461 4.177 4.177 0 0 0 1.249-1.431l2.425.9A5.532 5.532 0 0 1 58.9 24.4a5.409 5.409 0 0 1-5.249-3.31zm7.007-6.074a2.351 2.351 0 0 0-1.76-.654 2.448 2.448 0 0 0-1.77.678 2.937 2.937 0 0 0-.872 1.649h5.261a3.321 3.321 0 0 0-.859-1.673zM74.365 7.231l3.807 12.559 3.806-12.559h3.492L79.772 24.2h-3.2l-5.7-16.973zM84.62 21.318a6.915 6.915 0 0 1-.739-3.225 6.916 6.916 0 0 1 .739-3.224 5.5 5.5 0 0 1 2.146-2.255 7.106 7.106 0 0 1 6.643 0 5.488 5.488 0 0 1 2.146 2.255 6.9 6.9 0 0 1 .74 3.224 6.9 6.9 0 0 1-.74 3.225 5.476 5.476 0 0 1-2.146 2.255 7.1 7.1 0 0 1-6.643 0 5.489 5.489 0 0 1-2.146-2.255zm8.523-3.225a4.244 4.244 0 0 0-.825-2.654 2.845 2.845 0 0 0-4.461 0 4.244 4.244 0 0 0-.824 2.654 4.252 4.252 0 0 0 .824 2.656 2.845 2.845 0 0 0 4.461 0 4.252 4.252 0 0 0 .825-2.656zM98.415 21.318a6.915 6.915 0 0 1-.739-3.225 6.916 6.916 0 0 1 .739-3.224 5.494 5.494 0 0 1 2.146-2.255 7.106 7.106 0 0 1 6.643 0 5.488 5.488 0 0 1 2.146 2.255 6.9 6.9 0 0 1 .74 3.224 6.9 6.9 0 0 1-.74 3.225 5.476 5.476 0 0 1-2.146 2.255 7.1 7.1 0 0 1-6.643 0 5.482 5.482 0 0 1-2.146-2.255zm8.523-3.225a4.246 4.246 0 0 0-.825-2.654 2.845 2.845 0 0 0-4.461 0 4.246 4.246 0 0 0-.824 2.654 4.252 4.252 0 0 0 .824 2.656 2.845 2.845 0 0 0 4.461 0 4.252 4.252 0 0 0 .825-2.656zM114.6 11.984v1.988a4.851 4.851 0 0 1 1.6-1.613 3.834 3.834 0 0 1 2.012-.569 5.142 5.142 0 0 1 1.479.242l-.557 2.789a2.369 2.369 0 0 0-1.261-.34 2.786 2.786 0 0 0-2.353 1.3 7.159 7.159 0 0 0-.921 4.086V24.2h-3.006V11.984zM123.993 7.038v6.91a4.682 4.682 0 0 1 1.612-1.565 4.387 4.387 0 0 1 2.268-.593 3.97 3.97 0 0 1 2.788.933 3.547 3.547 0 0 1 1.019 2.752V24.2h-3.007v-7.658a2.533 2.533 0 0 0-.448-1.649 1.692 1.692 0 0 0-1.371-.533 2.218 2.218 0 0 0-1.381.509 3.578 3.578 0 0 0-1.068 1.552 7.194 7.194 0 0 0-.412 2.619v5.16h-3.006V7.038zM133.948 21.318a6.915 6.915 0 0 1-.739-3.225 6.916 6.916 0 0 1 .739-3.224 5.494 5.494 0 0 1 2.146-2.255 7.106 7.106 0 0 1 6.643 0 5.5 5.5 0 0 1 2.146 2.255 6.917 6.917 0 0 1 .74 3.224 6.915 6.915 0 0 1-.74 3.225 5.489 5.489 0 0 1-2.146 2.255 7.1 7.1 0 0 1-6.644 0 5.486 5.486 0 0 1-2.145-2.255zm8.522-3.225a4.246 4.246 0 0 0-.824-2.654 2.846 2.846 0 0 0-4.462 0 4.252 4.252 0 0 0-.824 2.654 4.252 4.252 0 0 0 .824 2.656 2.846 2.846 0 0 0 4.462 0 4.252 4.252 0 0 0 .824-2.656zM147.621 21.089a7.566 7.566 0 0 1 0-5.99 5.529 5.529 0 0 1 1.939-2.376 5.6 5.6 0 0 1 3.31-.933 5.294 5.294 0 0 1 5.092 3.2 7 7 0 0 1 .606 2.837v1.236h-8.413a2.962 2.962 0 0 0 .812 1.937 2.693 2.693 0 0 0 2.073.824 3.01 3.01 0 0 0 1.71-.461 4.166 4.166 0 0 0 1.25-1.427l2.425.9a5.533 5.533 0 0 1-5.555 3.564 5.6 5.6 0 0 1-3.31-.933 5.541 5.541 0 0 1-1.939-2.378zm7.007-6.075a2.351 2.351 0 0 0-1.758-.654 2.449 2.449 0 0 0-1.77.679 2.948 2.948 0 0 0-.873 1.648h5.262a3.325 3.325 0 0 0-.861-1.673zM160.046 18.094a7.05 7.05 0 0 1 1.394-4.6 4.8 4.8 0 0 1 3.94-1.709 4.7 4.7 0 0 1 1.9.376 3.252 3.252 0 0 1 1.3.933V7.038h3.007V24.2h-3.007v-1.257a2.583 2.583 0 0 1-1.151 1.006 4.369 4.369 0 0 1-2.049.449 4.8 4.8 0 0 1-3.94-1.71 7.048 7.048 0 0 1-1.394-4.594zm8.8 0a4.294 4.294 0 0 0-.788-2.752 2.48 2.48 0 0 0-2.025-.982 2.512 2.512 0 0 0-2.036.982 4.242 4.242 0 0 0-.8 2.752 4.252 4.252 0 0 0 .8 2.74 2.581 2.581 0 0 0 4.061.012 4.294 4.294 0 0 0 .789-2.752zM173.7 21.089a7.566 7.566 0 0 1 0-5.99 5.4 5.4 0 0 1 5.249-3.309 5.3 5.3 0 0 1 5.092 3.2 7 7 0 0 1 .606 2.837v1.236h-8.414A2.963 2.963 0 0 0 177.05 21a2.688 2.688 0 0 0 2.073.824 3.007 3.007 0 0 0 1.709-.461 4.168 4.168 0 0 0 1.249-1.431l2.425.9a5.533 5.533 0 0 1-5.553 3.564 5.4 5.4 0 0 1-5.249-3.309zm7.007-6.074a2.351 2.351 0 0 0-1.758-.655 2.449 2.449 0 0 0-1.77.679 2.942 2.942 0 0 0-.873 1.648h5.261a3.309 3.309 0 0 0-.856-1.672z"/>
  <path fill="#fff" d="M22.153 8.267A15.883 15.883 0 0 0 20 7.819a7.723 7.723 0 0 1-.044.985c-.06.746-.15 1.538-.254 2.314a5.889 5.889 0 0 1 1.269.552 6.547 6.547 0 0 1-.224 1.613 10.217 10.217 0 0 1-1.194 2.836 9.518 9.518 0 0 1-1.822 2.449 7.662 7.662 0 0 1-1.3.985 6.573 6.573 0 0 1-1.284-.985 10.518 10.518 0 0 1-1.866-2.449 11.207 11.207 0 0 1-1.194-2.836 5.924 5.924 0 0 1-.187-1.613 4.905 4.905 0 0 1 1.254-.552 43.573 43.573 0 0 1-.254-2.314c0-.358-.03-.687-.045-1-.746.149-1.463.3-2.135.477a11.213 11.213 0 0 0-2.794 1.165 12.163 12.163 0 0 0 .4 3.016 20.754 20.754 0 0 0 2.209 5.315 21.431 21.431 0 0 0 3.494 4.568A12.352 12.352 0 0 0 16.42 24.2a11.606 11.606 0 0 0 2.419-1.851 22.091 22.091 0 0 0 3.493-4.568 20.507 20.507 0 0 0 2.21-5.315 10.968 10.968 0 0 0 .4-3.016 11.908 11.908 0 0 0-2.792-1.165z" data-name="Shape"/>
</svg>
